<?xml version="1.0" encoding="UTF-8"?>
<svg version="1.1" xmlns="http://www.w3.org/2000/svg" width="2000" height="2000">
<path d="M0 0 C660 0 1320 0 2000 0 C2000 660 2000 1320 2000 2000 C1340 2000 680 2000 0 2000 C0 1340 0 680 0 0 Z " fill="#101010" transform="translate(0,0)"/>
<path d="M0 0 C85.8 0 171.6 0 260 0 C265.28 8.58 270.56 17.16 276 26 C280.46941201 33.09631588 280.46941201 33.09631588 284.953125 40.18359375 C288.42988014 45.67013324 291.87195309 51.17820548 295.3125 56.6875 C295.94293213 57.69699707 296.57336426 58.70649414 297.22290039 59.74658203 C298.5076015 61.80412772 299.79218745 63.86174532 301.07666016 65.91943359 C304.21589222 70.94746484 307.35803447 75.97367658 310.5 81 C314.28665553 87.05765888 318.07260997 93.11575047 321.85546875 99.17578125 C327.55021995 108.29664293 333.25047521 117.41354171 339 126.5 C345.39985753 136.61423388 351.73875893 146.76629843 358.07666016 156.91943359 C361.21589223 161.94746487 364.35807151 166.97365341 367.5 172 C368.75001464 173.99999085 370.00001462 175.99999086 371.25 178 C371.86875 178.99 372.4875 179.98 373.125 181 C408.75 237.99999999 408.75 237.99999999 410.62573242 241.0012207 C411.87323247 242.99718828 413.12079088 244.99311939 414.3684082 246.98901367 C417.53214182 252.05040916 420.69479561 257.11247394 423.85546875 262.17578125 C429.55021995 271.29664293 435.25047521 280.41354171 441 289.5 C447.39985753 299.61423388 453.73875893 309.76629843 460.07666016 319.91943359 C463.21589223 324.94746487 466.35807151 329.97365341 469.5 335 C470.75001464 336.99999085 472.00001462 338.99999086 473.25 341 C473.86875 341.99 474.4875 342.98 475.125 344 C525.75 425 525.75 425 527.62573242 428.0012207 C528.87323247 429.99718828 530.12079088 431.99311939 531.3684082 433.98901367 C534.53214182 439.05040916 537.69479561 444.11247394 540.85546875 449.17578125 C546.55021995 458.29664293 552.25047521 467.41354171 558 476.5 C564.39985753 486.61423388 570.73875893 496.76629843 577.07666016 506.91943359 C580.21589223 511.94746487 583.35807151 516.97365341 586.5 522 C587.75001464 523.99999085 589.00001462 525.99999086 590.25 528 C591.178125 529.485 591.178125 529.485 592.125 531 C594 534 595.875 537 597.75 540 C598.36891113 540.99016113 598.98782227 541.98032227 599.62548828 543.00048828 C600.8742119 544.99864123 602.12258487 546.99701335 603.37060547 548.99560547 C606.51228148 554.02572957 609.6601403 559.05178483 612.8203125 564.0703125 C621.11014722 577.25082062 629.15106572 590.55273876 637 604 C638.13137594 605.93237041 639.26288871 607.86466071 640.39453125 609.796875 C643.33632328 614.82483846 646.26839296 619.85838534 649.1953125 624.89501953 C650.40258133 626.97213601 651.61092226 629.04862971 652.8203125 631.12451172 C662.8079875 648.2762185 672.49920205 665.5753808 682 683 C682.60199219 684.1034375 683.20398437 685.206875 683.82421875 686.34375 C711.30941616 736.82428917 737.10735931 788.27249577 760 841 C760.24890848 831.19577172 759.88104063 821.53651612 759.08203125 811.76171875 C757.96931523 797.41852352 757.26562255 783.07087038 756.6515007 768.69874954 C756.56050008 766.57840115 756.46799129 764.45812342 756.37503052 762.33786011 C755.36827484 739.36747766 754.432643 716.39412473 753.53016281 693.41942596 C753.44092993 691.1497421 753.35124821 688.88007634 753.26150513 686.6104126 C752.93424348 678.3077042 752.62203296 670.00455372 752.32052325 661.70087241 C752.13831799 656.70620296 751.95091664 651.71179219 751.75593495 646.71760416 C750.34534289 610.44463847 749.70750331 574.24632622 749.76477823 537.9425883 C749.77562862 530.77862364 749.77408061 523.61467107 749.77250507 516.45070021 C749.76991901 503.24546278 749.77639698 490.04024583 749.78853989 476.83501434 C749.80048457 463.81115363 749.80809372 450.78730151 749.81024551 437.76343536 C749.81038299 436.9454561 749.81052047 436.12747684 749.81066212 435.28471033 C749.81133904 431.12850122 749.81194171 426.97229211 749.81251587 422.81608298 C749.81668674 393.5829493 749.83007643 364.34982669 749.84912109 335.11669922 C749.86756997 306.76481179 749.88169765 278.41292741 749.89013672 250.06103516 C749.89039977 249.18295157 749.89066282 248.30486799 749.89093385 247.40017581 C749.8935715 238.57993686 749.89612303 229.75969789 749.89861157 220.9394589 C749.90368033 202.98089968 749.90932282 185.02234067 749.91531372 167.06378174 C749.9155883 166.2385642 749.91586288 165.41334667 749.91614578 164.56312254 C749.92457089 139.33315704 749.93542136 114.1031934 749.94869995 88.87322998 C749.94907507 88.15868172 749.94945018 87.44413345 749.94983667 86.70793221 C749.96504674 57.80528728 749.98284851 28.90264383 750 0 C829.2 0 908.4 0 990 0 C990 378.51 990 757.02 990 1147 C903.87 1147 817.74 1147 729 1147 C723.555 1138.09 723.555 1138.09 718 1129 C716.09274035 1125.95120317 714.18218276 1122.90760193 712.25 1119.875 C707.7026316 1112.70394696 703.1852809 1105.51476052 698.6875 1098.3125 C698.0574707 1097.30364746 697.42744141 1096.29479492 696.77832031 1095.25537109 C695.49321202 1093.19717454 694.2082191 1091.13890595 692.92333984 1089.08056641 C689.78410778 1084.05253516 686.64196553 1079.02632342 683.5 1074 C679.71334447 1067.94234112 675.92739003 1061.88424953 672.14453125 1055.82421875 C666.44978005 1046.70335707 660.74952479 1037.58645829 655 1028.5 C648.60014247 1018.38576612 642.26124107 1008.23370157 635.92333984 998.08056641 C632.78410777 993.05253513 629.64192849 988.02634659 626.5 983 C625.24998536 981.00000915 623.99998538 979.00000914 622.75 977 C621.821875 975.515 621.821875 975.515 620.875 974 C615.25 965.00000001 615.25 965.00000001 613.37426758 961.9987793 C612.12676753 960.00281172 610.87920912 958.00688061 609.6315918 956.01098633 C606.46785818 950.94959084 603.30520439 945.88752606 600.14453125 940.82421875 C594.44978005 931.70335707 588.74952479 922.58645829 583 913.5 C576.60014247 903.38576612 570.26124107 893.23370157 563.92333984 883.08056641 C560.78410777 878.05253513 557.64192849 873.02634659 554.5 868 C553.24998536 866.00000915 551.99998538 864.00000914 550.75 862 C549.821875 860.515 549.821875 860.515 548.875 859 C543.24999999 849.99999999 543.24999999 849.99999999 541.37426758 846.9987793 C540.12676753 845.00281172 538.87920912 843.00688061 537.6315918 841.01098633 C534.46785818 835.94959084 531.30520439 830.88752606 528.14453125 825.82421875 C522.44978005 816.70335707 516.74952479 807.58645829 511 798.5 C504.60014247 788.38576612 498.26124107 778.23370157 491.92333984 768.08056641 C488.78410777 763.05253513 485.64192849 758.02634659 482.5 753 C481.24998536 751.00000915 479.99998538 749.00000914 478.75 747 C478.13125 746.01 477.5125 745.02 476.875 744 C471.25 735 471.25 735 469.37426758 731.9987793 C468.12676753 730.00281172 466.87920912 728.00688061 465.6315918 726.01098633 C462.46785818 720.94959084 459.30520439 715.88752606 456.14453125 710.82421875 C450.44978005 701.70335707 444.74952479 692.58645829 439 683.5 C433.24737212 674.40863763 427.5436719 665.28707151 421.84765625 656.16015625 C419.34057414 652.14337882 416.82757369 648.1304199 414.30859375 644.12109375 C398.11736149 618.33171106 382.49627396 592.21077563 367 566 C366.03517335 564.37108362 365.07033263 562.74217558 364.10546875 561.11328125 C356.63033786 548.47100918 349.32099021 535.73189978 342 523 C341.47116211 522.0817041 340.94232422 521.1634082 340.39746094 520.21728516 C322.4862725 489.10315879 305.44799897 457.5468103 288.99194336 425.64257812 C286.59278716 420.99159227 284.18678668 416.34512163 281.73583984 411.72119141 C275.00919925 399.02572938 268.5626617 386.20381428 262.17724609 373.33398438 C257.09853824 363.10527539 251.94712111 352.92759286 246.59951782 342.83659363 C242.57010804 335.22152425 238.70710679 327.52826222 234.875 319.8125 C234.19811154 318.45367895 233.5210283 317.09495491 232.84375 315.73632812 C231.22659696 312.49216135 229.61307207 309.24619776 228 306 C228.73249417 322.74006525 229.57602887 339.47350092 230.44903445 356.20676303 C230.63681413 359.80920584 230.82373639 363.41169315 231.01075745 367.01417542 C231.36548519 373.84479158 231.72090702 380.67537142 232.07661349 387.50593668 C232.47401495 395.13758623 232.87077922 402.76926884 233.26742244 410.40095782 C233.38428798 412.64901504 233.50122919 414.8970683 233.61818886 417.14512062 C234.00148317 424.51385487 234.38361714 431.88264644 234.76351929 439.2515564 C234.90976652 442.08551673 235.05615175 444.91946991 235.20263672 447.75341797 C235.23791497 448.43623046 235.27319322 449.11904294 235.30954051 449.82254672 C235.67278719 456.84368212 236.04060851 463.86435738 236.44655228 470.88316727 C236.49657772 471.75203945 236.54660316 472.62091164 236.59814453 473.51611328 C236.635744 474.16902271 236.67334348 474.82193214 236.71208233 475.4946267 C237.21513804 484.32652462 237.6190287 493.16206464 238 502 C238.04211562 502.97439325 238.08423123 503.9487865 238.12762308 504.95270681 C240.74339815 566.77899012 240.26546104 628.66815006 240.2070764 690.53508594 C240.19683412 701.57207801 240.19163699 712.60906437 240.18975449 723.64606094 C240.18961701 724.43839857 240.18947953 725.23073619 240.18933788 726.04708405 C240.18866091 730.07348276 240.18805825 734.09988148 240.18748413 738.1262802 C240.18332025 766.39994799 240.16995086 794.67360428 240.15087891 822.94726562 C240.132411 850.35774679 240.11829284 877.76822477 240.10986328 905.17871094 C240.10960023 906.02858625 240.10933718 906.87846157 240.10906615 907.75409069 C240.10642836 916.29147224 240.10387684 924.82885381 240.10138843 933.36623541 C240.09632053 950.74677144 240.09067804 968.12730728 240.08468628 985.50784302 C240.08427441 986.70566177 240.08427441 986.70566177 240.08385422 987.92767888 C240.07543406 1012.3276723 240.06458645 1036.72766378 240.05130005 1061.12765503 C240.05092493 1061.81829663 240.05054982 1062.50893824 240.05016333 1063.22050838 C240.03495812 1091.14700648 240.01715306 1119.07350304 240 1147 C160.8 1147 81.6 1147 0 1147 C0 768.49 0 389.98 0 0 Z " fill="#FEFEFE" transform="translate(505,427)"/>
</svg>
